# xmcd
# Track frame offsets:
# 150
# 14829
# 29745
# 42680
# 61904
# 78464
# 93244
# 108227
#
# Disc length: 1604 seconds
# Revision: 0
# Processed by: cddbd v1.4PL0 Copyright (c) Steve Scherf et al.
# Submitted via: VisiTrax 2.9.5.180 - For more info visit www.synapsa.com
#
DISCID=69064208
DTITLE=Various Artist - New Country Vol. 18 Nov-Dec 2002
DYEAR=2002
DGENRE=
TTITLE0=Charlene Carole - Fine on my own
TTITLE1=Tommy Wood - I tripped over your memory
TTITLE2=Brent Woodall and The Natchez Trace Band - Louisiana give back my heart
TTITLE3=Chris Schweiger - She's already gone
TTITLE4=Garry and Jon Michaels - She touched me
TTITLE5=T G Shepard - A december to remember
TTITLE6=T G Shepard - A whole lot more like christmas
TTITLE7=Barry Kaye - Randolph the redneck reindeer
EXTD=
EXTT0=
EXTT1=
EXTT2=
EXTT3=
EXTT4=
EXTT5=
EXTT6=
EXTT7=
PLAYORDER=
